<svg width="25" height="25" viewBox="0 0 25 25" fill="none" xmlns="http://www.w3.org/2000/svg">
<path d="M5.29992 20.9H6.97994V22.58C6.97994 23.6408 7.83915 24.5 8.89996 24.5C9.96078 24.5 10.82 23.6408 10.82 22.58V20.9H14.18V22.58C14.18 23.6408 15.0392 24.5 16.1001 24.5C17.1609 24.5 18.0201 23.6408 18.0201 22.58V20.9H19.7001V10.34H5.29992V20.9Z" fill="white"/>
<path d="M19.9955 0.6296C19.8491 0.5432 19.6835 0.5 19.5155 0.5C19.1723 0.5 18.8555 0.6824 18.6851 0.980001L17.2451 3.48321C14.5306 1.1096 10.4794 1.1096 7.76494 3.48321L6.31532 0.980001C6.14491 0.6824 5.82811 0.5 5.4849 0.5C5.3169 0.5 5.1513 0.5432 5.0049 0.6296C4.54649 0.893601 4.38809 1.4816 4.65209 1.94L6.43532 5.02641C5.69131 6.18081 5.2977 7.52722 5.3001 8.90002H19.7003C19.7027 7.52722 19.3091 6.18081 18.5651 5.02641L20.3483 1.94C20.6123 1.4816 20.4539 0.893601 19.9955 0.6296ZM9.74016 6.98002C9.34176 6.98002 9.02015 6.65841 9.02015 6.26001C9.02015 5.86161 9.34176 5.54001 9.74016 5.54001C10.1386 5.54001 10.4602 5.86161 10.4602 6.26001C10.4602 6.65841 10.1386 6.98002 9.74016 6.98002ZM15.2602 6.98002C14.8618 6.98002 14.5402 6.65841 14.5402 6.26001C14.5402 5.86161 14.8618 5.54001 15.2602 5.54001C15.6586 5.54001 15.9802 5.86161 15.9802 6.26001C15.9802 6.65841 15.6586 6.98002 15.2602 6.98002Z" fill="white"/>
<path d="M23.06 10.34C22.2656 10.34 21.62 10.9856 21.62 11.78V16.58C21.62 17.3744 22.2656 18.02 23.06 18.02C23.8544 18.02 24.5 17.3744 24.5 16.58V11.78C24.5 10.9856 23.8544 10.34 23.06 10.34Z" fill="white"/>
<path d="M1.94002 10.34C1.14561 10.34 0.5 10.9856 0.5 11.78V16.58C0.5 17.3744 1.14561 18.02 1.94002 18.02C2.73443 18.02 3.38004 17.3744 3.38004 16.58V11.78C3.38004 10.9856 2.73443 10.34 1.94002 10.34Z" fill="white"/>
</svg>
