<svg width="21" height="25" viewBox="0 0 21 25" fill="none" xmlns="http://www.w3.org/2000/svg">
<path d="M6.94115 24.6666C7.02498 24.629 7.10924 24.629 7.19306 24.6666H6.94115Z" fill="#525254"/>
<path d="M19.8431 18.1434C19.4138 17.9161 19.0146 17.6447 18.6501 17.3183C18.0708 16.8001 17.6256 16.1828 17.3258 15.458C16.9581 14.5685 16.8654 13.6404 16.9865 12.6882C17.1297 11.5595 17.6163 10.5992 18.3769 9.7786C18.67 9.46227 19.0018 9.19359 19.3508 8.94533C19.4657 8.86364 19.4696 8.83233 19.3889 8.71841C19.0891 8.29497 18.7419 7.91692 18.3338 7.6024C17.1963 6.72602 15.907 6.37339 14.4953 6.44918C13.925 6.47959 13.3813 6.63117 12.8455 6.81952C12.4047 6.97473 11.9749 7.15945 11.5407 7.33146C11.0187 7.53841 10.4985 7.60422 9.95478 7.4018C9.52015 7.24023 9.09084 7.0655 8.66109 6.89304C7.8242 6.55719 6.96691 6.40561 6.06971 6.55129C4.59995 6.78956 3.40605 7.51753 2.47248 8.69345C1.84847 9.47951 1.44045 10.3795 1.19919 11.3589C1.05727 11.9362 0.967235 12.5207 0.956148 13.1189C0.943286 13.8265 0.938407 14.5322 1.02711 15.2356C1.17169 16.3807 1.45021 17.4917 1.84226 18.5732C2.08841 19.2526 2.38999 19.9053 2.72483 20.5434C3.01488 21.0962 3.35992 21.6117 3.72359 22.1146C4.16887 22.7305 4.61459 23.3463 5.17872 23.8578C5.64085 24.2772 6.14644 24.6049 6.78064 24.6657H6.94119C7.02501 24.6466 7.10928 24.6466 7.1931 24.6657H7.35365C7.51065 24.6389 7.67075 24.643 7.82686 24.6017C8.16481 24.5123 8.48591 24.377 8.80567 24.2377C9.39109 23.9822 9.98494 23.7702 10.6298 23.7271C11.0804 23.6967 11.5212 23.7339 11.9594 23.8306C12.3692 23.9209 12.7511 24.0934 13.1307 24.2677C13.7028 24.5309 14.2927 24.6761 14.9278 24.648C15.3739 24.6285 15.7744 24.4946 16.1531 24.2717C16.5882 24.0158 16.9506 23.6717 17.2827 23.2892C17.7812 22.7146 18.2114 22.0878 18.6252 21.4493C18.9973 20.8751 19.3109 20.2661 19.5836 19.6357C19.7672 19.2109 19.9526 18.7865 20.0511 18.33V18.2596C19.9979 18.1911 19.9136 18.1788 19.8431 18.1416V18.1434Z" fill="white"/>
<path d="M10.5354 6.18222C10.8042 6.22443 11.0699 6.19901 11.3315 6.13956C12.3604 5.90537 13.2164 5.36756 13.8994 4.55291C14.7079 3.58848 15.1594 2.47248 15.2015 1.23983C15.1935 1.06011 15.1869 0.927582 15.1807 0.795059C15.174 0.662082 15.1115 0.660266 15.0126 0.670251C14.6037 0.712459 14.2081 0.810036 13.8298 0.970697C12.0837 1.71092 10.9599 3.00801 10.5066 4.8942C10.4121 5.28678 10.3833 5.68843 10.4432 6.09281C10.4525 6.15635 10.4765 6.17314 10.5354 6.18222Z" fill="white"/>
</svg>
