<svg width="279" height="134" viewBox="0 0 279 134" fill="none" xmlns="http://www.w3.org/2000/svg">
<path fill-rule="evenodd" clip-rule="evenodd" d="M59.2852 66.427L58.9084 66.3506C57.6462 69.5593 55.8754 72.5197 53.7278 75.0981C59.0968 80.8278 66.6511 84.3803 75.0531 84.3803C87.4866 84.3803 98.1116 76.5878 102.426 65.5294C97.0378 71.6029 89.2386 75.4227 80.5351 75.4227C72.7924 75.4227 64.089 72.9398 59.304 66.4079" fill="#17A7DD"/>
<path fill-rule="evenodd" clip-rule="evenodd" d="M98.6579 46.2392C98.6579 54.3181 95.493 61.6522 90.35 67.0191C88.0894 69.8458 85.0941 72.0422 81.6654 73.2836C79.5932 74.0476 77.3702 74.4678 75.0342 74.4678C73.1881 74.4678 71.3796 74.2004 69.6841 73.7038C71.8505 74.4678 74.1112 74.9453 76.353 75.2126C77.747 75.3654 79.1411 75.4609 80.5163 75.4609C89.2197 75.4609 97.0189 71.6411 102.407 65.5676C103.744 62.1679 104.479 58.4436 104.479 54.5664C104.479 46.2583 101.145 38.7714 95.7756 33.3663C97.6218 37.2816 98.639 41.6363 98.639 46.2583" fill="#1B3968"/>
<path fill-rule="evenodd" clip-rule="evenodd" d="M94.7018 61.1938C97.2261 56.7819 98.6579 51.6824 98.6579 46.2392C98.6579 41.6172 97.6218 37.2625 95.7944 33.3472C90.4631 27.9803 83.1348 24.6762 75.0342 24.6762C70.7767 24.6762 66.7264 25.5929 63.0529 27.2546C63.8818 27.1782 64.6918 27.14 65.5396 27.1591C85.452 27.1973 103.123 50.7657 90.35 67.0191C92.0078 65.2811 93.4772 63.3139 94.7018 61.1938Z" fill="#E43535"/>
<path fill-rule="evenodd" clip-rule="evenodd" d="M59.0214 43.0114C62.5631 37.9501 68.4219 34.6269 75.0342 34.6269C83.9638 34.6269 91.4992 40.6813 93.8917 48.9512C92.3469 43.3552 89.2386 38.4276 85.0564 34.646C79.8569 29.9857 73.0185 27.1591 65.5396 27.1591C64.6918 27.1591 63.8818 27.1973 63.0529 27.2546C59.5112 28.8398 56.3463 31.1508 53.7089 33.9393C55.9319 36.5941 57.7404 39.6499 59.0214 42.9923" fill="#C7DAE5"/>
<path d="M118.853 50.0208C118.853 50.6702 118.74 51.2241 118.495 51.7015C118.269 52.1599 117.967 52.561 117.591 52.8857C117.214 53.1913 116.799 53.4587 116.347 53.6306C115.876 53.8024 115.405 53.8979 114.934 53.9552V55.1585H112.561V53.9552H112.542C111.826 53.8788 111.204 53.707 110.715 53.4778C110.206 53.2295 109.81 52.943 109.49 52.561C109.17 52.179 108.944 51.7397 108.812 51.205C108.68 50.7084 108.605 50.1354 108.605 49.5051V44.5775C108.605 43.9282 108.718 43.3934 108.944 42.8968C109.17 42.4193 109.471 42.0182 109.848 41.6745C110.225 41.3498 110.639 41.0824 111.129 40.9105C111.619 40.7386 112.09 40.6431 112.58 40.6431V39.86H114.953V40.6431C115.462 40.6431 115.933 40.7577 116.385 40.9296C116.856 41.1206 117.27 41.3689 117.628 41.6936C118.005 42.0182 118.288 42.4384 118.514 42.9159C118.74 43.3743 118.853 43.9473 118.853 44.5775V49.9826M112.561 42.5721C112.033 42.6676 111.619 42.8395 111.299 43.126C110.997 43.4125 110.828 43.8518 110.828 44.4056V50.2309C110.828 50.4983 110.884 50.7657 110.978 50.9758C111.073 51.1859 111.204 51.3768 111.374 51.5105C111.544 51.6442 111.713 51.7779 111.92 51.8543C112.127 51.9307 112.335 51.9689 112.542 51.988V42.5721H112.561ZM116.649 44.4056C116.649 43.8518 116.479 43.3934 116.159 43.1069C115.839 42.8013 115.424 42.6294 114.934 42.5721V51.988C115.142 51.9498 115.33 51.8925 115.537 51.8161C115.745 51.7206 115.933 51.606 116.084 51.4532C116.253 51.3195 116.385 51.1477 116.479 50.9376C116.592 50.7275 116.63 50.4792 116.63 50.2309V44.4056H116.649Z" fill="#1B3968"/>
<path d="M130.571 51.2623C130.571 52.5992 130.269 53.5924 129.666 54.2799C129.063 54.9675 128.121 55.2922 126.84 55.2922C125.559 55.2922 124.618 54.9675 124.034 54.3181C123.45 53.6688 123.148 52.7329 123.148 51.4914V43.7945C123.148 43.2024 123.223 42.6485 123.355 42.1519C123.487 41.6554 123.713 41.2352 123.996 40.8723C124.297 40.5094 124.674 40.2229 125.145 40.051C125.616 39.8409 126.181 39.7454 126.84 39.7454C127.537 39.7454 128.14 39.8409 128.611 40.0128C129.082 40.2038 129.478 40.4712 129.76 40.8341C130.043 41.1779 130.25 41.6172 130.382 42.0946C130.514 42.5912 130.571 43.1642 130.571 43.7945V51.2623ZM128.197 43.6226C128.197 43.2024 128.103 42.8013 127.914 42.4766C127.726 42.1328 127.387 41.98 126.859 41.98C126.577 41.98 126.351 42.0373 126.181 42.171C126.012 42.2856 125.861 42.4384 125.767 42.6294C125.672 42.8204 125.597 43.0305 125.559 43.2597C125.522 43.4889 125.503 43.699 125.503 43.89V51.5678C125.503 51.9689 125.597 52.3318 125.804 52.6374C126.012 52.943 126.351 53.0958 126.822 53.0958C127.293 53.0958 127.651 52.943 127.858 52.6183C128.065 52.2936 128.159 51.8734 128.159 51.4151V43.6417L128.197 43.6226Z" fill="#1B3968"/>
<path d="M140.178 55.1776V48.4929H137.447V55.1776H135.073V39.8791H137.447V46.2774H140.178V39.8791H142.552V55.1776H140.178Z" fill="#1B3968"/>
<path d="M148.166 55.1776V58.0616H146.169V53.1913L147.073 53.0003C147.488 52.561 147.77 52.0453 147.902 51.4723C148.053 50.8803 148.147 50.1163 148.166 49.1804L148.43 39.8982H155.306V53.0194H156.266V58.0616H154.27V55.1776H148.166ZM150.313 49.1613C150.276 50.0399 150.219 50.8039 150.144 51.4342C150.05 52.0835 149.88 52.6183 149.635 53.0194H152.932V42.1137H150.483L150.313 49.1613Z" fill="#1B3968"/>
<path d="M170.546 39.7454C171.168 39.7454 171.714 39.8409 172.185 40.0128C172.637 40.1847 173.014 40.433 173.315 40.7386C173.617 41.0442 173.843 41.4071 173.975 41.8464C174.107 42.2856 174.182 42.744 174.182 43.2597L171.865 43.8518C171.865 43.2979 171.752 42.8395 171.545 42.4766C171.337 42.1328 170.998 41.9609 170.527 41.9609C170.245 41.9609 170.019 42.0182 169.849 42.1328C169.679 42.2474 169.548 42.4002 169.453 42.5912C169.359 42.7822 169.284 42.9732 169.265 43.1833C169.227 43.4125 169.209 43.6035 169.209 43.7945V51.5678C169.209 51.7206 169.209 51.8734 169.246 52.0453C169.284 52.2363 169.34 52.3891 169.435 52.5419C169.529 52.6947 169.661 52.8093 169.83 52.9239C170 53.0194 170.207 53.0767 170.471 53.0767C171.337 53.0767 171.789 52.4464 171.808 51.1859C172.204 51.2623 172.599 51.3196 172.995 51.3769C173.391 51.4342 173.786 51.4723 174.182 51.5296C174.144 52.6947 173.843 53.6115 173.221 54.2799C172.618 54.9484 171.714 55.2922 170.527 55.2922C169.265 55.2922 168.323 54.9866 167.739 54.3372C167.136 53.6879 166.835 52.7711 166.835 51.5296V43.9282C166.835 43.3552 166.891 42.8013 167.023 42.3047C167.155 41.8082 167.362 41.3689 167.645 40.9869C167.946 40.6049 168.323 40.2993 168.794 40.0892C169.265 39.86 169.849 39.7454 170.546 39.7454Z" fill="#1B3968"/>
<path d="M185.504 51.2623C185.504 52.5992 185.203 53.5924 184.6 54.2799C183.997 54.9675 183.055 55.2922 181.774 55.2922C180.493 55.2922 179.551 54.9675 178.967 54.3181C178.383 53.6688 178.082 52.7329 178.082 51.4914V43.7945C178.082 43.2024 178.157 42.6485 178.289 42.1519C178.439 41.6554 178.647 41.2352 178.929 40.8723C179.212 40.5094 179.607 40.2229 180.078 40.051C180.549 39.8409 181.115 39.7454 181.774 39.7454C182.471 39.7454 183.074 39.8409 183.545 40.0128C184.016 40.2038 184.411 40.4712 184.694 40.8341C184.976 41.1779 185.184 41.6172 185.316 42.0946C185.447 42.5912 185.504 43.1642 185.504 43.7945V51.2623ZM183.13 43.6226C183.13 43.2024 183.036 42.8013 182.848 42.4766C182.659 42.1328 182.32 41.98 181.793 41.98C181.51 41.98 181.284 42.0373 181.115 42.171C180.945 42.2856 180.794 42.4384 180.7 42.6294C180.606 42.8204 180.549 43.0305 180.512 43.2597C180.474 43.4889 180.455 43.699 180.455 43.89V51.5678C180.455 51.9689 180.549 52.3318 180.757 52.6374C180.964 52.943 181.303 53.0958 181.793 53.0958C182.283 53.0958 182.622 52.943 182.829 52.6183C183.036 52.2936 183.13 51.8734 183.13 51.4151V43.6226Z" fill="#1B3968"/>
<path d="M191.024 55.1776V58.0616H189.027V53.1913L189.931 53.0003C190.345 52.561 190.609 52.0453 190.76 51.4723C190.911 50.8803 190.986 50.1163 191.024 49.1804L191.287 39.8982H198.163V53.0194H199.124V58.0616H197.127V55.1776H191.024ZM193.171 49.1613C193.134 50.0399 193.077 50.8039 193.002 51.4342C192.908 52.0835 192.738 52.6183 192.493 53.0194H195.79V42.1137H193.341L193.171 49.1613Z" fill="#1B3968"/>
<path d="M202.986 55.1776V39.8791H209.787V42.0946H205.36V46.2774H209.222V48.5311H205.36V52.943H209.787V55.1776H202.986Z" fill="#1B3968"/>
<path d="M219.074 45.5898L215.872 55.1776H213.573V39.8982H215.891V49.5815H215.985L219.169 39.8982H221.486V55.1776H219.15V45.5898H219.074ZM216.23 36.4222C216.23 36.575 216.286 36.7278 216.38 36.8997C216.456 37.0715 216.569 37.2243 216.682 37.358C216.814 37.5108 216.946 37.6254 217.115 37.7209C217.285 37.8164 217.454 37.8737 217.661 37.8737C217.888 37.8737 218.076 37.8164 218.245 37.7209C218.415 37.6254 218.547 37.5108 218.679 37.358C218.792 37.2243 218.886 37.0715 218.961 36.8997C219.037 36.7278 219.056 36.575 219.056 36.4222H220.789C220.77 36.7087 220.676 37.0715 220.544 37.4153C220.412 37.7782 220.223 38.1029 219.96 38.4085C219.696 38.7141 219.376 38.9624 219.018 39.1725C218.641 39.3635 218.189 39.459 217.661 39.459C217.096 39.459 216.606 39.3635 216.211 39.1725C215.815 38.9624 215.495 38.7141 215.25 38.4085C215.005 38.122 214.817 37.7782 214.704 37.4153C214.591 37.0715 214.515 36.7278 214.497 36.4222H216.23Z" fill="#1B3968"/>
<path d="M229.586 39.7454C230.208 39.7454 230.754 39.8409 231.206 40.0128C231.659 40.1847 232.035 40.433 232.337 40.7386C232.638 41.0442 232.864 41.4071 232.996 41.8464C233.128 42.2856 233.203 42.744 233.203 43.2597L230.886 43.8518C230.886 43.2979 230.773 42.8395 230.566 42.4766C230.359 42.1328 230.02 41.9609 229.549 41.9609C229.266 41.9609 229.04 42.0182 228.87 42.1328C228.701 42.2474 228.55 42.4002 228.475 42.5912C228.381 42.7822 228.305 42.9732 228.268 43.1833C228.23 43.4125 228.211 43.6035 228.211 43.7945V51.5678C228.211 51.7206 228.211 51.8734 228.249 52.0453C228.286 52.2363 228.343 52.3891 228.437 52.5419C228.531 52.6947 228.663 52.8093 228.833 52.9239C229.002 53.0194 229.21 53.0767 229.473 53.0767C230.34 53.0767 230.792 52.4464 230.811 51.1859C231.206 51.2623 231.602 51.3196 231.998 51.3769C232.393 51.4342 232.789 51.4723 233.184 51.5296C233.147 52.6947 232.827 53.6115 232.224 54.2799C231.621 54.9484 230.717 55.2922 229.53 55.2922C228.268 55.2922 227.345 54.9866 226.742 54.3372C226.139 53.6879 225.837 52.7711 225.837 51.5296V43.9282C225.837 43.3552 225.894 42.8013 226.026 42.3047C226.158 41.8082 226.365 41.3689 226.647 40.9869C226.949 40.6049 227.326 40.2993 227.797 40.0892C228.268 39.86 228.852 39.7454 229.549 39.7454" fill="#1B3968"/>
<path d="M241.021 42.0946V55.1776H238.648V42.0946H236.18V39.8791H243.489V42.0946H241.021Z" fill="#1B3968"/>
<path d="M252.626 47.175C253.304 47.3851 253.756 47.8053 254.02 48.4165C254.265 49.0467 254.397 49.7343 254.397 50.5174C254.397 52.1026 254.058 53.2868 253.38 54.0316C252.701 54.7765 251.646 55.1585 250.233 55.1585H247.069V39.8791H250.422C251.778 39.8791 252.758 40.242 253.361 40.9487C253.963 41.6554 254.265 42.6867 254.265 44.0237C254.265 44.7303 254.152 45.3415 253.907 45.8763C253.662 46.392 253.248 46.793 252.645 47.0604V47.175M251.985 44.081C251.985 43.3743 251.835 42.8777 251.571 42.553C251.288 42.2474 250.836 42.0946 250.177 42.0946H249.423V46.0482H250.196C250.817 46.0482 251.27 45.8763 251.552 45.5516C251.835 45.2078 251.985 44.7303 251.985 44.081ZM252.117 50.3264C252.117 49.6197 251.985 49.0849 251.722 48.7412C251.458 48.3974 250.987 48.2064 250.328 48.2064H249.423V52.9621H250.365C250.742 52.9621 251.044 52.8857 251.288 52.7329C251.514 52.6183 251.684 52.4273 251.816 52.179C251.948 51.9307 252.023 51.6633 252.061 51.3577C252.098 51.0331 252.117 50.7084 252.117 50.3455" fill="#1B3968"/>
<path d="M264.249 45.5898L261.028 55.1776H258.749V39.8791H261.066V49.5624H261.141L264.344 39.8791H266.661V55.1776H264.325V45.5898H264.249Z" fill="#1B3968"/>
<path d="M270.598 55.1776L271.465 50.3264C271.559 49.8107 271.728 49.3332 271.954 48.9322C272.18 48.512 272.482 48.1873 272.877 47.9581C272.18 47.6716 271.691 47.2132 271.427 46.6212C271.163 46.0291 271.031 45.3033 271.031 44.482C271.031 42.9732 271.389 41.8273 272.124 41.0633C272.859 40.2993 273.838 39.8982 275.1 39.8982H278.604V55.1776H276.231V48.6648H275.609C275.195 48.6648 274.818 48.8176 274.479 49.1231C274.14 49.4478 273.895 50.0208 273.744 50.8612L273.009 55.1776H270.617M275.289 42.0946C274.573 42.0946 274.064 42.3238 273.782 42.744C273.499 43.1642 273.348 43.7563 273.348 44.4438C273.348 45.1887 273.537 45.7044 273.895 45.9909C274.253 46.2583 274.724 46.4111 275.27 46.4111H276.212V42.0946H275.289Z" fill="#1B3968"/>
<path d="M115.763 67.8786L111.77 79.7583H108.944V60.8119H111.807V72.8062H111.92L115.876 60.8119H118.74V79.7583H115.839V67.8786H115.763Z" fill="#1B3968"/>
<path d="M133.151 79.7583V71.4692H129.779V79.7583H126.822V60.8119H129.779V68.7189H133.151V60.8119H136.109V79.7583H133.151Z" fill="#1B3968"/>
<path d="M150.615 79.7583V71.4692H147.224V79.7583H144.285V60.8119H147.224V68.7189H150.615V60.8119H153.554V79.7583H150.615Z" fill="#1B3968"/>
<path d="M170.772 74.9071C170.772 76.5687 170.395 77.8102 169.661 78.6505C168.907 79.4909 167.739 79.9111 166.138 79.9111C164.537 79.9111 163.387 79.51 162.653 78.7078C161.937 77.8866 161.56 76.7406 161.56 75.2127V65.6822C161.56 64.9373 161.635 64.2497 161.824 63.6385C161.993 63.0083 162.257 62.4735 162.634 62.0342C162.992 61.5949 163.482 61.2511 164.066 61.022C164.65 60.7737 165.365 60.64 166.176 60.64C167.042 60.64 167.777 60.7546 168.361 60.9838C168.945 61.2129 169.416 61.5376 169.774 61.996C170.132 62.4353 170.377 62.951 170.546 63.5621C170.697 64.1924 170.772 64.88 170.772 65.6631V74.9071ZM167.814 65.4339C167.814 64.8991 167.701 64.4216 167.475 64.0205C167.249 63.5812 166.816 63.3712 166.176 63.3712C165.836 63.3712 165.554 63.4666 165.328 63.6194C165.102 63.7722 164.932 63.9632 164.819 64.1924C164.706 64.4216 164.612 64.6699 164.574 64.9564C164.537 65.2238 164.499 65.4912 164.499 65.7395V75.27C164.499 75.7474 164.631 76.2058 164.876 76.5878C165.121 76.9889 165.535 77.1799 166.138 77.1799C166.741 77.1799 167.174 76.9698 167.419 76.5687C167.664 76.1485 167.796 75.6519 167.796 75.079V65.453L167.814 65.4339Z" fill="#1B3968"/>
<path d="M185.73 69.8267C186.559 70.0941 187.143 70.6288 187.444 71.3737C187.746 72.1377 187.915 73.0162 187.915 73.9903C187.915 75.9766 187.501 77.4282 186.653 78.3449C185.805 79.2808 184.505 79.7392 182.753 79.7392H178.816V60.7928H182.961C184.637 60.7928 185.843 61.232 186.615 62.1106C187.388 62.9892 187.746 64.2688 187.746 65.9304C187.746 66.809 187.595 67.573 187.294 68.2223C186.992 68.8717 186.465 69.3683 185.73 69.693V69.8076M184.939 66.0068C184.939 65.1283 184.769 64.498 184.411 64.116C184.072 63.734 183.488 63.543 182.697 63.543H181.774V68.4324H182.735C183.507 68.4324 184.053 68.2223 184.411 67.8022C184.769 67.382 184.939 66.7899 184.939 65.9877M185.108 73.7611C185.108 72.8826 184.939 72.2141 184.619 71.7748C184.298 71.3355 183.714 71.1254 182.904 71.1254H181.793V77.0271H182.961C183.432 77.0271 183.808 76.9316 184.091 76.7597C184.374 76.5878 184.581 76.3395 184.75 76.053C184.901 75.7856 184.995 75.4227 185.052 75.0408C185.089 74.6397 185.127 74.2195 185.127 73.7802" fill="#1B3968"/>
<path d="M202.741 79.7583L202.007 75.8047H198.521C198.39 76.4541 198.277 77.1226 198.145 77.7719C198.032 78.4404 197.919 79.1089 197.806 79.7583H194.81C195.451 76.5687 196.072 73.4173 196.713 70.2851C197.353 67.1337 197.994 63.9823 198.616 60.8119H201.894L205.737 79.7583H202.741ZM200.179 65.1856C199.991 66.5034 199.802 67.8022 199.595 69.1009C199.388 70.3997 199.181 71.7366 198.936 73.0544H201.536L200.311 65.1856H200.179Z" fill="#1B3968"/>
<path d="M221.975 60.8119V77.008H223.2V83.3489H220.732V79.7392H212.763V60.8119H215.721V77.008H219.018V60.8119H221.975Z" fill="#1B3968"/>
<path d="M237.046 67.8786L233.053 79.7583H230.208V60.8119H233.09V72.8062H233.184L237.141 60.8119H240.023V79.7583H237.122V67.8786H237.046Z" fill="#1B3968"/>
<path d="M247.389 79.7583L248.444 73.7229C248.576 73.0735 248.783 72.5197 249.047 71.9849C249.31 71.4692 249.706 71.0681 250.196 70.7816C249.329 70.4188 248.726 69.8649 248.387 69.1391C248.067 68.3942 247.897 67.5157 247.897 66.4843C247.897 64.6126 248.35 63.1993 249.254 62.2252C250.158 61.2702 251.383 60.7928 252.946 60.7928H257.298V79.7392H254.359V71.6411H253.587C253.078 71.6411 252.607 71.8512 252.174 72.2523C251.741 72.6534 251.439 73.36 251.251 74.3532L250.346 79.7392H247.37M253.21 63.5621C252.325 63.5621 251.703 63.8295 251.345 64.3643C250.987 64.8991 250.817 65.6058 250.817 66.4652C250.817 67.4011 251.043 68.0313 251.477 68.3942C251.929 68.7571 252.494 68.929 253.191 68.929H254.359V63.5621H253.21Z" fill="#1B3968"/>
<path d="M270.956 75.6137L269.581 72.0995L268.413 68.7762H268.281V79.7583H265.323V60.8119H268.206L270.259 66.1978L271.747 70.3042H271.879L273.424 66.0832L275.458 60.8119H278.303V79.7583H275.345V68.8335H275.251L274.045 72.195L272.708 75.6137H270.956Z" fill="#1B3968"/>
<path d="M276.042 90.9695C276.758 90.492 277.512 89.9572 278.341 89.3843L278.416 89.327C274.215 91.256 270.052 93.0322 265.907 94.6556C240.061 104.816 215.683 109.228 194.471 109.381C164.781 109.61 141.309 101.531 128.837 89.327H106.156C140.103 121.91 219.206 129.435 276.061 90.9695" fill="white"/>
<path d="M83.9638 89.327H62.45C91.0471 120.019 131.983 131.67 166.402 133.198C169.962 133.351 173.447 133.408 176.857 133.351C199.181 133.026 223.972 128.098 245.543 116.429C257.92 109.763 269.223 100.844 278.397 89.3079C226.214 141.067 121.867 132.109 83.9638 89.3079" fill="#E22A2A"/>
<path d="M278.397 89.327L278.322 89.3843C277.512 89.9763 276.739 90.492 276.024 90.9695C219.169 129.435 140.065 121.91 106.118 89.327L83.9638 89.327C121.867 132.128 226.214 141.086 278.397 89.327Z" fill="#339FD9"/>
<path d="M8.74112 34.5505H23.2092L29.2752 28.3814L46.3807 11.0202V0H5.14295V10.3518H32.5531C29.4259 13.5413 32.7792 10.1226 8.72228 34.5505" fill="#1B3968"/>
<path d="M33.9849 34.9133C42.1985 36.8424 48.4529 43.9664 49.1688 52.6756V52.4655C50.1107 58.9974 48.9616 65.8922 45.4011 72.004C42.142 77.6383 37.357 81.7828 31.8938 84.2657C42.7637 83.4062 51.9946 76.5305 56.4028 66.9618C56.1579 67.4775 55.913 67.9932 55.6493 68.5088C63.3355 53.707 48.9239 37.7782 33.9849 34.9324" fill="#E63335"/>
<path d="M45.4199 72.0231C48.9804 65.8923 50.1296 59.0165 49.1688 52.4846V52.6947C49.2253 53.2486 49.263 53.8215 49.263 54.3945C49.263 55.0821 49.2253 55.7697 49.15 56.4572C48.7167 61.423 46.7386 65.3002 43.781 68.1842C43.3854 68.5852 42.9897 68.9863 42.5753 69.3683L42.4811 69.4638C42.0855 69.8267 41.671 70.1514 41.2377 70.4761L41.0682 70.5907C40.6538 70.8962 40.2205 71.2018 39.7683 71.4692L39.5611 71.5838C39.109 71.8512 38.6569 72.0995 38.1859 72.3287L37.9598 72.4433C37.4889 72.6725 36.9991 72.8826 36.5093 73.0735L36.302 73.1499C35.7934 73.3409 35.2659 73.5128 34.7384 73.6465L34.5689 73.7038C34.0226 73.8375 33.4762 73.9712 32.9111 74.0667H32.8169C32.2329 74.1813 31.6301 74.2577 31.0272 74.315C19.6675 76.3204 6.34862 72.3478 1.52593 63.9823C2.59973 67.191 4.18217 70.1323 6.17907 72.7489L6.23558 72.8253C6.537 73.2263 6.85726 73.6274 7.19635 74.0094L7.29055 74.124C7.6108 74.506 7.9499 74.8689 8.30783 75.2318L8.38319 75.3273C9.87144 76.8743 11.5292 78.2685 13.3189 79.4718L13.5261 79.6055C13.8841 79.8538 14.2608 80.0639 14.6376 80.293L14.939 80.4649C15.297 80.675 15.6737 80.8851 16.0317 81.0761L16.3519 81.248C16.7475 81.439 17.1243 81.63 17.5199 81.8019L17.7837 81.9165C18.2735 82.1457 18.7444 82.3367 19.2531 82.5276L19.4603 82.6231C19.724 82.7186 20.0066 82.795 20.2704 82.8905L20.7036 83.0242C20.9109 83.1006 21.1181 83.1388 21.3065 83.2152C21.8905 83.3871 22.4556 83.5399 23.0585 83.6736C23.4164 83.7691 23.7743 83.8264 24.1323 83.9028C24.396 83.9601 24.6598 83.9983 24.9423 84.0365H24.98C25.5829 84.132 26.2045 84.2275 26.8262 84.2848H27.1653L27.4667 84.3421C28.1261 84.3803 28.8043 84.4185 29.4636 84.4376H29.5578C30.2548 84.4376 30.933 84.3994 31.5924 84.3421H31.9315C37.4135 81.8592 42.1797 77.6955 45.4388 72.0613" fill="#C7DAE5"/>
<path d="M59.1344 54.1844C59.1344 53.7069 59.1344 53.2104 59.0968 52.7329C59.0968 52.4655 59.0591 52.2172 59.0402 51.9498C59.0214 51.6824 59.0026 51.415 58.9649 51.1286C58.9272 50.823 58.8895 50.4983 58.8519 50.1927C58.833 50.0017 58.7953 49.7916 58.7577 49.5815C58.7012 49.2377 58.6446 48.894 58.5693 48.5502L58.4751 48.1109C58.3997 47.7098 58.3055 47.3278 58.2114 46.9267L58.1548 46.7357C55.8188 37.7209 49.4514 30.3677 41.1436 26.758L40.9175 26.6625C40.5407 26.5097 40.1451 26.3569 39.7683 26.2041L39.4104 26.0895C38.8641 25.8985 38.2989 25.7075 37.7338 25.5356C37.4512 25.4592 37.1498 25.3828 36.8672 25.2873C36.6411 25.23 36.4151 25.1918 36.189 25.1346C35.8499 25.0582 35.5296 24.9818 35.1905 24.9054L25.7336 34.4932H27.4102C28.1072 34.3977 28.8231 34.3786 29.539 34.3786C31.0649 34.3786 32.5343 34.5695 33.966 34.8942C48.8862 37.74 63.2978 53.6688 55.6305 68.4706C55.8942 67.9741 56.1579 67.4584 56.384 66.9236L56.4594 66.7517C56.6666 66.2742 56.8738 65.7967 57.0622 65.3193L57.1376 65.1092C57.7592 63.4857 58.249 61.7668 58.5881 60.0288L58.6446 59.7614C58.7388 59.2839 58.8142 58.8064 58.8707 58.329L58.9272 57.9088C58.9837 57.4504 59.0214 56.9729 59.0591 56.5145L59.0968 56.1135C59.1344 55.5214 59.1533 54.9293 59.1533 54.3372V54.1653" fill="#1B3968"/>
<path d="M1.52593 63.9632C6.34862 72.3096 19.6675 76.3013 31.0272 74.2959C30.5374 74.3341 30.0476 74.3723 29.5578 74.3723C18.9705 74.3723 10.3424 65.8731 9.89028 55.254H0C0.0941931 58.2908 0.602836 61.232 1.52593 63.9823" fill="#1AAADF"/>
<path d="M278.944 89.2697L278.887 89.1551C278.887 89.1551 278.755 88.9832 278.699 88.9259C278.661 88.8877 278.51 88.8113 278.454 88.7922C278.416 88.7922 278.303 88.754 278.265 88.754C278.209 88.754 278.152 88.754 278.096 88.754L277.889 88.8113C273.725 90.7021 269.543 92.4783 265.455 94.0827C241.549 103.441 216.983 108.483 194.433 108.655H193.228C165.592 108.655 142.345 101.474 129.478 88.9641C129.44 88.9259 129.384 88.8877 129.327 88.8686L129.12 88.7922C129.12 88.7922 129.007 88.754 128.95 88.754H62.7326C62.7326 88.754 62.5631 88.7731 62.4877 88.8304L62.224 89.0023C62.0733 89.0978 61.9791 89.2888 62.0167 89.4798L62.0733 89.8044C62.0733 89.8044 62.1298 89.9763 62.2051 90.0527C75.524 104.263 92.3469 115.302 112.184 122.865C128.819 129.206 147.601 133.007 166.458 133.828C169.077 133.943 171.752 134 174.37 134C175.218 134 176.085 134 176.932 134C188.725 133.828 200.405 132.415 211.652 129.798C224.01 126.933 235.52 122.655 245.825 117.116C259.05 110.011 270.146 100.882 278.849 89.9954C278.849 89.9763 278.887 89.9572 278.887 89.9381C278.887 89.9381 278.887 89.8999 278.906 89.8808L278.944 89.7853C278.944 89.7853 279 89.6516 279 89.5752V89.4416C279 89.4416 279 89.3079 278.962 89.2506L278.944 89.2697ZM276.57 90.7976C268.168 100.863 257.637 109.362 245.204 116.028C225.819 126.456 201.536 132.396 176.876 132.759C173.466 132.816 169.943 132.759 166.477 132.606C142.232 131.536 96.8117 124.565 63.8253 90.0145H128.743C141.874 102.677 165.365 109.935 193.228 109.935C193.623 109.935 194.038 109.935 194.452 109.935C217.134 109.763 241.85 104.702 265.907 95.2859C269.43 93.9108 273.009 92.4019 276.57 90.8167V90.7976Z" fill="#E1F1F9"/>
<path d="M52.8235 8.95753C54.3683 8.32725 54.6132 7.79247 54.6132 4.7939V0.210091H61.1502V10.39H58.9272V2.21551H56.6666V4.62201C56.6666 8.80473 55.8754 10.2372 53.3887 10.6765L52.8423 8.97663L52.8235 8.95753Z" fill="#1B3968"/>
<path d="M70.7202 8.42275C70.1174 9.77879 68.7987 10.5046 67.3104 10.5046C64.4658 10.5046 63.4108 8.82383 63.4108 5.32868C63.4108 2.4256 64.2397 0.0954959 67.1974 0.0954959C69.9478 0.0954959 70.9274 2.04361 70.9274 4.7175V5.90165H65.6714C65.6714 7.2386 65.954 8.42275 67.2539 8.42275C67.8944 8.42275 68.4596 8.04076 68.8552 7.39139C69.458 7.71608 70.0985 8.04076 70.7014 8.40365L70.7202 8.42275ZM67.1785 2.19641C66.1047 2.19641 65.7656 3.15137 65.7091 4.33552H68.6479C68.6479 3.05587 68.2335 2.19641 67.1597 2.19641H67.1785Z" fill="#1B3968"/>
<path d="M76.9935 2.12001V10.4091H74.8082V2.12001H72.265V0.22919H79.5744V2.12001H76.9935Z" fill="#1B3968"/>
</svg>
