<svg width="317" height="369" viewBox="0 0 317 369" fill="none" xmlns="http://www.w3.org/2000/svg">
<path d="M267.234 124.558C257.749 111.168 245.036 100.172 230.18 92.6847C215.937 85.5006 199.756 81.5544 182.623 81.858C154.714 82.3639 129.66 94.0338 111.678 112.517C93.729 130.966 82.8849 156.262 83.3949 183.919C83.9048 211.61 95.6666 236.501 114.261 254.31C132.89 272.118 158.385 282.911 186.26 282.405L186.736 307.499C151.824 308.139 120.006 294.648 96.6865 272.354C73.4007 250.06 58.6813 218.963 58.0354 184.358C57.4236 149.719 70.9871 118.116 93.457 95.0457C115.927 71.9419 147.235 57.3377 182.147 56.6969C203.563 56.2921 223.823 61.2502 241.67 70.2555C260.163 79.5645 276.072 93.3255 287.97 110.122L267.234 124.524V124.558Z" fill="url(#paint0_linear_10_205)"/>
<path d="M317 320.349C306.496 329.759 294.836 338.09 282.292 345.038C269.851 351.952 256.661 357.484 242.961 361.43L240.514 362.138H240.412C190.917 375.73 140.47 368.546 98.5556 345.746C55.9953 322.609 22.2734 283.316 7.62206 233.398L6.90818 230.97V230.902C-6.79133 181.862 0.483346 131.809 23.4292 90.2225C46.783 47.995 86.3858 14.5705 136.663 0L147.269 36.1902C107.054 47.8264 75.4058 74.5727 56.7092 108.334C38.0465 142.13 32.3696 182.975 44.1314 222.909C55.8593 262.843 82.7824 294.243 116.81 312.76C150.872 331.277 192.039 336.909 232.287 325.273L232.661 325.172C243.845 321.901 254.281 317.55 263.834 312.221C273.828 306.689 283.108 300.045 291.505 292.523L316.932 320.315L317 320.349Z" fill="url(#paint1_linear_10_205)"/>
<path d="M264.616 182.705C265.398 225.101 231.37 260.111 188.64 260.853C145.91 261.629 110.624 227.867 109.876 185.471C109.094 143.074 143.122 108.065 185.852 107.323C228.582 106.547 263.868 140.309 264.616 182.705Z" fill="url(#paint2_linear_10_205)"/>
<defs>
<linearGradient id="paint0_linear_10_205" x1="138.5" y1="184.5" x2="317" y2="184.5" gradientUnits="userSpaceOnUse">
<stop stop-color="#006C55"/>
<stop offset="1"/>
</linearGradient>
<linearGradient id="paint1_linear_10_205" x1="138.5" y1="184.5" x2="317" y2="184.5" gradientUnits="userSpaceOnUse">
<stop stop-color="#006C55"/>
<stop offset="1"/>
</linearGradient>
<linearGradient id="paint2_linear_10_205" x1="138.5" y1="184.5" x2="317" y2="184.5" gradientUnits="userSpaceOnUse">
<stop stop-color="#006C55"/>
<stop offset="1"/>
</linearGradient>
</defs>
</svg>
